<?xml version="1.0" encoding="UTF-8" standalone="no"?> <!-- Created with Vectornator for iOS (http://vectornator.io/) --><!DOCTYPE svg PUBLIC "-//W3C//DTD SVG 1.1//EN" "http://www.w3.org/Graphics/SVG/1.1/DTD/svg11.dtd">
<svg height="100%" style="fill-rule:evenodd;clip-rule:evenodd;stroke-linecap:round;stroke-linejoin:round;" xmlns:xlink="http://www.w3.org/1999/xlink" xmlns="http://www.w3.org/2000/svg" xml:space="preserve" width="100%" xmlns:vectornator="http://vectornator.io" version="1.1" viewBox="0 0 1400 703.222">
<metadata>
<vectornator:setting key="DynamicGuides" value="1"/>
<vectornator:setting key="CMYKEnabledKey" value="0"/>
<vectornator:setting key="Units" value="Pixels"/>
<vectornator:setting key="RulersVisible" value="1"/>
<vectornator:setting key="SnapToGuides" value="1"/>
<vectornator:setting key="GridSpacing" value="36"/>
</metadata>
<defs/>
<g id="Untitled" vectornator:layerName="Untitled">
<path d="M0.260257+0.889491L1400+0.889491L1400+703.532L0.260257+703.532L0.260257+0.889491Z" opacity="1" fill="#e4f9f5"/>
<path d="M1227.98+53.6199L1227.98+53.6199C1227.85+53.6199+1227.73+53.6199+1227.73+53.6199C1194.07+53.6199+1166.92+81.2695+1166.92+115.3C1166.92+149.33+1194.2+176.98+1227.73+176.98C1227.85+176.98+1227.98+176.98+1227.98+176.98L1227.98+176.98C1261.38+176.855+1288.53+149.33+1288.53+115.3C1288.41+81.3946+1261.38+53.8701+1227.98+53.6199Z" opacity="1" fill="#6db9b5"/>
<path d="M85.5863+227.983L85.5863+227.983C86.0867+229.985+90.966+241.621+146.891+241.621L149.143+241.621L258.115+241.621C256.864+244.748+255.988+248.126+255.488+251.504C254.987+253.381+254.612+255.383+254.362+257.385C253.986+257.385+253.611+257.385+253.236+257.385C240.474+257.385+230.09+267.894+230.09+280.906C230.09+281.156+230.09+281.281+230.09+281.531C230.09+281.781+230.09+282.032+230.09+282.282C230.09+283.283+230.215+284.158+230.34+285.159L230.34+285.159C230.59+286.661+234.219+294.918+273.504+295.293C273.629+295.293+273.879+295.293+274.004+295.293C274.63+295.293+275.255+295.293+275.881+295.293L277.632+295.293L359.705+295.293L364.585+295.293C411.877+295.293+411.877+283.783+411.877+283.783L411.752+283.783L411.877+283.783C412.002+282.782+412.127+281.906+412.127+280.906C412.127+267.894+401.743+257.385+388.981+257.385C384.978+257.385+381.099+258.511+377.847+260.262C377.847+259.887+377.847+259.512+377.847+259.136C377.847+241.37+363.584+226.857+346.068+226.857C342.315+226.857+338.812+227.483+335.559+228.734C333.807+226.607+331.931+224.856+329.929+223.104C329.929+222.854+329.929+222.604+329.929+222.228C329.929+204.713+315.916+190.575+298.776+190.575C293.271+190.575+288.142+191.951+283.763+194.454C283.763+193.953+283.763+193.453+283.763+192.827C283.763+168.931+264.621+149.413+241.1+149.413C236.095+149.413+231.341+150.289+226.962+151.916C215.702+138.279+198.812+129.521+179.92+129.521C149.143+129.521+123.745+152.541+119.491+182.568C118.741+185.195+118.24+187.823+117.99+190.575C117.49+190.575+116.989+190.45+116.489+190.45C99.2234+190.45+85.336+204.588+85.336+222.103C85.336+222.353+85.336+222.604+85.336+222.854C85.336+223.229+85.336+223.605+85.336+223.98C85.336+225.481+85.4611+226.732+85.5863+227.983Z" opacity="1" fill="#6db9b5"/>
<path d="M153.021+467.196L153.021+467.196C152.896+467.196+153.021+467.196+153.021+467.196C153.146+466.446+153.146+465.695+153.146+465.07C153.146+455.561+145.39+447.804+135.881+447.804C132.878+447.804+130.001+448.555+127.499+449.931C127.499+449.681+127.499+449.306+127.499+449.055C127.499+435.919+116.864+425.409+103.853+425.409C101.1+425.409+98.4727+425.91+95.9705+426.785C89.7149+419.279+80.3316+414.525+69.9473+414.525C52.9322+414.525+38.7946+427.161+36.4175+443.55C36.0421+444.927+35.6668+446.428+35.5417+447.929C35.2915+447.929+35.0412+447.929+34.6659+447.929C25.1574+447.929+17.4005+455.686+17.4005+465.195C17.4005+465.445+17.4005+465.57+17.4005+465.82C17.4005+465.945+17.4005+466.07+17.4005+466.196C17.4005+466.946+17.4005+467.572+17.5256+468.322L17.5256+468.322C17.7759+469.448+20.4032+475.704+51.5559+475.704L52.8071+475.704L113.987+475.704L117.615+475.704C153.021+475.704+153.021+467.196+153.021+467.196Z" opacity="1" fill="#6db9b5"/>
<path d="M1239.61+633.907L1144.28+437.608C1150.03+438.358+1157.54+438.859+1167.17+438.859L1168.8+438.859L1244.74+438.859L1249.25+438.859C1293.04+438.859+1293.04+428.349+1293.04+428.349L1292.91+428.349L1293.04+428.349C1293.16+427.474+1293.16+426.598+1293.16+425.722C1293.16+413.836+1283.53+404.328+1271.64+404.328C1267.89+404.328+1264.39+405.329+1261.26+406.955C1261.26+406.58+1261.26+406.205+1261.26+405.829C1261.26+389.565+1248.12+376.428+1231.86+376.428C1228.48+376.428+1225.1+377.054+1222.1+378.055C1214.34+368.796+1202.71+362.916+1189.69+362.916C1168.55+362.916+1151.04+378.555+1148.03+398.823C1147.53+400.575+1147.16+402.326+1146.91+404.203C1146.53+404.203+1146.28+404.203+1145.91+404.203C1140.03+404.203+1134.65+406.58+1130.77+410.458L1115.38+378.805C1114.25+367.795+1103.37+345.4+1084.35+343.649L1084.35+343.649C1083.1+343.524+1081.72+343.524+1080.47+343.524C1080.47+343.524+1061.46+346.652+1054.32+366.795C1052.32+372.425+1051.7+376.303+1051.82+378.93L1036.81+410.458L981.009+236.428C981.885+232.55+981.759+226.92+979.633+219.038C973.502+196.518+962.117+185.633+953.609+181.63C951.482+180.379+949.356+179.628+947.104+179.628C946.853+179.628+946.603+179.628+946.353+179.753L946.353+179.753C946.353+179.753+946.353+179.753+946.228+179.753L946.103+179.753C943.976+179.628+934.342+179.878+924.458+197.018L924.458+197.018C924.083+197.769+923.583+198.52+923.207+199.27L923.082+199.395C922.707+200.146+922.331+200.897+921.831+201.773C921.831+201.898+921.706+202.023+921.706+202.148C921.331+202.899+920.955+203.774+920.58+204.525C920.455+204.65+920.455+204.9+920.33+205.025C919.954+205.776+919.579+206.652+919.204+207.528C919.079+207.778+919.079+207.903+918.953+208.153C918.578+209.029+918.203+209.905+917.953+210.781C917.827+211.031+917.702+211.281+917.702+211.531C917.327+212.532+916.952+213.533+916.576+214.534C916.451+214.784+916.451+214.909+916.326+215.16C915.951+216.411+915.45+217.662+915.075+219.038C911.322+230.548+910.571+237.805+911.322+242.058L902.689+268.957C898.435+264.829+892.555+262.201+886.174+262.201C883.422+262.201+880.795+262.702+878.292+263.578C872.037+256.071+862.653+251.317+852.269+251.317C835.254+251.317+821.116+263.953+818.739+280.343C818.364+281.719+817.989+283.22+817.863+284.721C817.613+284.721+817.363+284.721+816.988+284.721C807.479+284.721+799.722+292.478+799.722+301.987C799.722+302.237+799.722+302.362+799.722+302.612C799.722+302.738+799.722+302.863+799.722+302.988C799.722+303.738+799.722+304.364+799.847+305.115L799.847+305.115C800.098+306.241+802.725+312.496+833.878+312.496L835.129+312.496L888.677+312.496L821.617+521.933L818.239+513.425L818.239+512.174L817.989+512.8L817.738+512.174L817.738+513.425L795.093+570.851C794.718+571.102+794.217+571.352+793.842+571.602C793.342+571.852+792.841+572.228+792.466+572.603C790.964+573.604+789.463+574.605+787.962+575.606C787.336+575.981+786.711+576.481+786.085+576.982C784.709+577.983+783.333+578.984+781.956+579.984C781.206+580.61+780.33+581.236+779.454+581.861C778.203+582.862+776.952+583.738+775.701+584.739C774.825+585.364+773.949+586.115+773.074+586.866L764.316+564.721L764.316+563.845L764.191+564.22L764.066+563.845L764.066+564.721L762.064+569.725L688.123+388.814C687.748+379.556+680.491+360.414+667.605+354.409C665.603+353.283+663.351+352.532+661.099+352.532C660.723+352.532+660.348+352.532+659.848+352.657C659.222+352.657+658.597+352.532+657.971+352.657C657.971+352.657+641.581+355.785+635.451+375.928C633.199+383.184+632.824+387.813+633.574+390.316L594.414+485.525L531.608+331.763C531.483+329.261+531.233+326.133+530.608+322.38C526.604+296.357+514.593+276.214+494.826+273.211C493.825+272.961+492.699+272.836+491.698+272.836C491.448+272.836+491.197+272.836+490.947+272.836C490.822+272.836+476.059+272.21+464.048+293.354C452.038+314.623+449.911+330.888+449.911+330.888C449.911+330.888+450.161+332.264+450.661+334.14L357.829+561.843C342.315+554.587+327.677+551.209+312.038+551.209C310.912+551.209+309.786+551.209+308.535+551.334L271.752+493.532C271.502+492.156+271.127+490.78+270.376+489.154C266.998+480.896+261.743+475.391+256.614+471.763C256.488+471.638+256.238+471.513+256.113+471.388C256.113+471.388+255.988+471.388+255.988+471.263C252.735+469.136+247.731+466.383+242.351+466.383C242.226+466.383+242.101+466.383+241.976+466.383L241.85+466.383C241.85+466.383+241.725+466.383+241.6+466.383C241.475+466.383+241.475+466.383+241.35+466.383C241.225+466.383+241.225+466.383+241.1+466.383C240.975+466.383+240.724+466.383+240.474+466.383C240.349+466.383+240.349+466.383+240.349+466.383C240.099+466.383+239.724+466.383+239.473+466.508L239.348+466.508C238.973+466.508+238.598+466.633+238.097+466.633L237.972+466.633C237.597+466.759+237.096+466.884+236.596+467.009L236.471+467.009C235.97+467.134+235.47+467.259+234.969+467.509C234.844+467.509+234.844+467.509+234.719+467.634C234.219+467.885+233.593+468.135+233.093+468.385C232.968+468.385+232.968+468.51+232.842+468.51C232.217+468.76+231.716+469.136+231.091+469.511C230.966+469.511+230.841+469.636+230.841+469.636C230.215+470.011+229.59+470.387+229.089+470.887C228.964+471.012+228.839+471.012+228.714+471.137C228.088+471.513+227.588+472.013+226.962+472.514C226.837+472.639+226.587+472.764+226.462+472.889C225.836+473.389+225.336+474.015+224.71+474.515C224.46+474.766+224.335+474.891+224.085+475.141C223.459+475.767+222.959+476.392+222.333+477.143C222.083+477.393+221.958+477.643+221.708+477.894C221.207+478.644+220.581+479.395+220.081+480.146C219.831+480.521+219.581+480.771+219.33+481.146C218.705+482.022+218.204+482.898+217.704+483.899C217.454+484.274+217.329+484.524+217.078+484.9C216.328+486.276+215.577+487.652+214.826+489.154C213.7+491.406+213.075+493.282+212.449+495.034L124.121+633.907L1239.61+633.907Z" opacity="1" fill="#6db9b5"/>
<path d="M795.594+619.957L688.623+358.099C688.623+358.099+680.366+346.589+671.733+346.589C663.101+346.589+654.843+358.099+654.843+358.099L547.748+619.957" opacity="1" fill="#5e7878"/>
<path d="M671.108+346.714C662.725+347.215+654.843+358.224+654.843+358.224L547.748+619.957L671.108+619.957C671.108+619.957+671.108+346.714+671.108+346.714Z" opacity="1" fill="#8d9b9e"/>
<path d="M662.35+619.957L524.102+281.906C524.102+281.906+513.467+267.018+502.207+267.018C491.072+267.018+480.313+281.906+480.313+281.906L342.315+619.957" opacity="1" fill="#5e7878"/>
<path d="M501.582+267.143C490.697+267.769+480.563+281.906+480.563+281.906L342.315+619.957L501.582+619.957C501.582+619.957+501.582+267.143+501.582+267.143Z" opacity="1" fill="#8d9b9e"/>
<path d="M1254.63+636.973L1116.38+352.469C1116.38+352.469+1105.74+339.958+1094.48+339.958C1083.22+339.958+1072.59+352.469+1072.59+352.469L934.467+636.973" opacity="1" fill="#5e7878"/>
<path d="M1093.73+340.083C1082.85+340.584+1072.72+352.469+1072.72+352.469L934.467+636.973L1093.73+636.973C1093.73+636.973+1093.73+340.083+1093.73+340.083Z" opacity="1" fill="#8d9b9e"/>
<path d="M1117.76+624.086L979.507+192.702C979.507+192.702+968.873+173.81+957.613+173.81C946.353+173.81+935.718+192.702+935.718+192.702L797.595+624.086" opacity="1" fill="#5e7878"/>
<path d="M956.862+173.935C945.978+174.811+935.844+192.827+935.844+192.827L797.595+624.086L956.862+624.086L956.862+173.935Z" opacity="1" fill="#8d9b9e"/>
<path d="M376.971+636.222L270+467.947C270+467.947+261.743+460.566+253.11+460.566C244.478+460.566+236.22+467.947+236.22+467.947L129.25+636.222" opacity="1" fill="#5e7878"/>
<path d="M252.36+460.566C243.977+460.941+236.095+467.947+236.095+467.947L129.125+636.222L252.485+636.222L252.485+460.566L252.36+460.566Z" opacity="1" fill="#8d9b9e"/>
<path d="M502.708+267.021C502.708+267.021+487.819+266.271+475.809+287.54C463.798+308.809+461.671+325.073+461.671+325.073C461.671+325.073+468.928+362.231+485.818+329.202C502.708+296.298+497.453+331.579+497.453+338.71C497.453+345.842+509.589+367.361+512.592+346.342C515.594+325.323+519.097+310.56+527.73+323.947C536.363+337.334+546.622+344.09+542.368+316.315C538.114+288.791+524.727+267.647+502.708+267.021Z" opacity="1" fill="#e9eae8"/>
<path d="M503.959+267.147C503.584+267.147+503.083+267.021+502.708+267.021C502.708+267.021+487.819+266.271+475.809+287.54C463.798+308.809+461.671+325.073+461.671+325.073C461.671+325.073+468.928+362.231+485.818+329.202C502.708+296.298+497.453+331.579+497.453+338.71C497.453+342.339+500.456+349.47+503.959+353.098C503.959+353.098+503.959+267.147+503.959+267.147Z" opacity="1" fill="#ffffff"/>
<path d="M252.666+460.611C252.666+460.611+237.152+458.484+225.267+483.256C213.381+508.028+235.401+498.52+239.029+492.264C242.657+486.134+244.784+485.759+245.159+492.64C245.535+499.521+252.791+501.773+257.67+499.396C263.05+496.768+261.174+480.254+266.553+490.263C271.933+500.272+288.573+500.397+281.442+483.256C274.31+466.241+259.672+460.611+252.666+460.611Z" opacity="1" fill="#e9eae8"/>
<path d="M252.485+460.651C251.984+460.526+236.846+458.899+225.085+483.296C213.2+508.068+235.22+498.56+238.848+492.304C242.476+486.174+244.603+485.798+244.978+492.679C245.228+497.434+248.732+499.936+252.485+500.311C252.485+500.311+252.485+460.651+252.485+460.651Z" opacity="1" fill="#ffffff"/>
<path d="M957.509+174.018C957.509+174.018+939.743+170.265+925.981+213.178C912.219+256.092+937.616+239.452+941.745+228.817C945.873+218.058+948.376+217.557+948.751+229.443C949.126+241.328+957.509+245.332+963.139+241.203C969.269+236.699+967.268+208.049+973.398+225.314C979.528+242.58+998.671+242.83+990.538+213.303C982.406+183.652+965.391+174.018+957.509+174.018Z" opacity="1" fill="#e9eae8"/>
<path d="M957.675+174.019C957.05+173.894+939.659+171.016+926.147+213.179C912.385+256.092+937.783+239.452+941.911+228.818C946.04+218.058+948.542+217.558+948.918+229.443C949.168+237.701+953.297+241.954+957.675+242.58C957.675+242.58+957.675+174.019+957.675+174.019Z" opacity="1" fill="#ffffff"/>
<path d="M668.455+345.144C668.455+345.144+660.692+346.625+653.853+354.115C650.755+357.508+647.846+362.134+645.935+368.415C639.804+388.433+647.686+387.807+652.816+380.926C657.82+374.045+668.455+370.291+668.455+378.549C668.455+386.806+675.836+392.311+680.215+387.807C684.594+383.303+684.97+368.915+689.599+378.924C694.228+388.933+697.981+393.312+698.732+383.178C698.998+378.819+697.186+371.05+693.478+363.661C688.46+353.659+679.968+344.352+668.455+345.144Z" opacity="1" fill="#e9eae8"/>
<path d="M671.671+345.222C670.545+345.097+669.419+345.097+668.293+345.097C668.293+345.097+651.903+348.225+645.773+368.368C639.642+388.385+647.524+387.76+652.654+380.879C657.658+373.998+668.293+370.244+668.293+378.502C668.293+382.13+669.794+385.133+671.671+387.009L671.671+345.222Z" opacity="1" fill="#ffffff"/>
<path d="M1091.39+334.983C1091.39+334.983+1072.38+338.111+1065.25+358.254C1058.11+378.272+1067.25+377.646+1073.13+370.765C1079.01+363.884+1091.39+360.13+1091.39+368.388C1091.39+376.645+1100.03+382.15+1105.03+377.646C1110.04+373.142+1110.54+358.754+1115.92+368.763C1121.42+378.772+1125.67+383.151+1126.42+373.017C1127.18+362.758+1114.66+333.607+1091.39+334.983Z" opacity="1" fill="#e9eae8"/>
<path d="M1093.73+335.061C1092.48+334.936+1091.11+334.936+1089.86+334.936C1089.86+334.936+1070.84+338.064+1063.71+358.207C1056.58+378.224+1065.71+377.599+1071.59+370.718C1077.47+363.837+1089.86+360.083+1089.86+368.341C1089.86+371.969+1091.48+374.972+1093.73+376.848C1093.73+376.848+1093.73+335.061+1093.73+335.061Z" opacity="1" fill="#ffffff"/>
<path d="M1280.9+107.168C1280.9+141.198+1253.63+168.848+1220.1+168.848C1186.57+168.848+1159.29+141.198+1159.29+107.168C1159.29+73.1373+1186.57+45.4876+1220.1+45.4876C1253.63+45.4876+1280.9+73.0121+1280.9+107.168Z" fill-rule="evenodd" fill="#f2d583" opacity="1"/>
<path d="M1220.35+45.4876C1220.22+45.4876+1220.1+45.4876+1220.1+45.4876C1186.44+45.4876+1159.29+73.1373+1159.29+107.168C1159.29+141.198+1186.57+168.847+1220.1+168.847C1220.22+168.847+1220.35+168.847+1220.35+168.847L1220.35+45.4876Z" fill-rule="evenodd" fill="#fbe9a6" opacity="1"/>
<path d="M312.789+204.838C312.789+187.322+298.776+173.185+281.636+173.185C276.131+173.185+271.001+174.561+266.622+177.063C266.622+176.563+266.622+176.062+266.622+175.437C266.622+151.54+247.48+132.023+223.959+132.023C218.955+132.023+214.201+132.899+209.822+134.525C198.562+120.888+181.672+112.13+162.78+112.13C129.375+112.13+102.101+139.405+101.601+173.185C100.85+173.185+100.099+173.06+99.2234+173.06C81.958+173.06+68.0707+187.197+68.0707+204.713C68.0707+206.214+68.1958+207.59+68.3209+208.966L68.3209+208.966C68.8213+211.218+73.8258+224.105+131.877+224.105L248.857+224.105C312.538+224.105+312.538+208.716+312.538+208.716L312.413+208.716C312.538+208.716+312.538+208.716+312.538+208.591C312.663+207.465+312.789+206.214+312.789+204.838Z" fill-rule="evenodd" fill="#ffffff" opacity="1"/>
<path d="M304.031+206.84C304.031+191.076+290.519+178.314+274.004+178.314C268.749+178.314+263.745+179.565+259.491+181.817C259.491+181.317+259.491+180.816+259.491+180.441C259.491+158.797+241.1+141.281+218.329+141.281C213.575+141.281+208.946+142.032+204.692+143.533C193.933+131.147+177.543+123.39+159.402+123.39C127.123+123.39+100.975+147.912+100.475+178.439C99.7239+178.439+98.9732+178.314+98.2225+178.314C81.5827+178.314+68.1958+191.076+68.1958+206.84C68.1958+208.216+68.3209+209.467+68.446+210.718L68.446+210.718C68.8213+212.72+73.7007+224.355+129.751+224.355L242.476+224.355C303.781+224.355+303.781+210.468+303.781+210.468L303.655+210.468C303.655+210.468+303.781+210.468+303.781+210.343C303.906+209.217+304.031+207.966+304.031+206.84Z" fill-rule="evenodd" fill="#e2f3f3" opacity="1"/>
<path d="M395.112+263.64C395.112+250.629+384.728+240.119+371.966+240.119C367.963+240.119+364.084+241.245+360.831+242.997C360.831+242.621+360.831+242.246+360.831+241.871C360.831+224.105+346.569+209.592+329.053+209.592C325.3+209.592+321.797+210.218+318.544+211.469C310.161+201.335+297.65+194.829+283.513+194.829C258.615+194.829+238.472+215.097+237.972+240.244C237.346+240.244+236.846+240.119+236.22+240.119C223.459+240.119+213.075+250.629+213.075+263.64C213.075+264.766+213.2+265.767+213.325+266.893L213.325+266.893C213.7+268.52+217.454+278.153+260.617+278.153L347.57+278.153C394.862+278.153+394.862+266.643+394.862+266.643L394.737+266.643L394.862+266.643C394.987+265.642+395.112+264.641+395.112+263.64Z" fill-rule="evenodd" fill="#ffffff" opacity="1"/>
<path d="M388.481+265.016C388.481+253.256+378.472+243.747+366.086+243.747C362.208+243.747+358.454+244.748+355.326+246.375C355.326+245.999+355.326+245.624+355.326+245.249C355.326+229.235+341.564+216.098+324.674+216.098C321.171+216.098+317.668+216.723+314.54+217.724C306.533+208.591+294.397+202.711+280.76+202.711C256.739+202.711+237.221+220.977+236.846+243.747C236.346+243.747+235.72+243.622+235.22+243.622C222.833+243.622+212.825+253.131+212.825+264.891C212.825+265.892+212.95+266.768+213.075+267.769L213.075+267.769C213.45+269.27+216.953+277.903+258.74+277.903L342.565+277.903C388.231+277.903+388.231+267.519+388.231+267.519L388.106+267.519L388.231+267.519C388.481+266.768+388.481+265.892+388.481+265.016Z" fill-rule="evenodd" fill="#e2f3f3" opacity="1"/>
<path d="M946.103+295.919C946.103+286.41+938.346+278.654+928.837+278.654C925.835+278.654+922.957+279.404+920.455+280.78C920.455+280.53+920.455+280.155+920.455+279.905C920.455+266.768+909.82+256.259+896.809+256.259C894.056+256.259+891.429+256.759+888.927+257.635C882.671+250.128+873.288+245.374+862.904+245.374C844.387+245.374+829.249+260.262+828.998+278.654C828.623+278.654+828.123+278.528+827.747+278.528C818.239+278.528+810.482+286.285+810.482+295.794C810.482+296.544+810.482+297.42+810.607+298.171L810.607+298.171C810.857+299.422+813.61+306.428+845.888+306.428L910.571+306.428C945.852+306.428+945.852+298.046+945.852+298.046L945.727+298.046L945.852+298.046C945.978+297.42+946.103+296.67+946.103+295.919Z" fill-rule="evenodd" fill="#ffffff" opacity="1"/>
<path d="M941.223+296.92C941.223+288.287+933.717+281.281+924.583+281.281C921.706+281.281+918.953+282.032+916.576+283.158C916.576+282.907+916.576+282.657+916.576+282.407C916.576+270.646+906.317+261.013+893.681+261.013C891.054+261.013+888.426+261.388+886.049+262.264C880.044+255.508+871.036+251.254+860.902+251.254C843.011+251.254+828.498+264.641+828.248+281.281C827.872+281.281+827.372+281.281+826.997+281.281C817.738+281.281+810.357+288.287+810.357+296.92C810.357+297.67+810.357+298.296+810.482+299.047L810.482+299.047C810.732+300.173+813.359+306.428+844.512+306.428L906.943+306.428C940.973+306.428+940.973+298.796+940.973+298.796L940.848+298.796C940.848+298.796+940.848+298.796+940.973+298.796C941.098+298.296+941.223+297.67+941.223+296.92Z" fill-rule="evenodd" fill="#e2f3f3" opacity="1"/>
<path d="M135.881+447.804C135.881+438.296+128.124+430.539+118.616+430.539C115.613+430.539+112.735+431.289+110.233+432.666C110.233+432.415+110.233+432.04+110.233+431.79C110.233+418.778+99.5987+408.144+86.5871+408.144C83.8347+408.144+81.2073+408.644+78.7051+409.52C72.4495+402.013+63.0662+397.259+52.6819+397.259C34.1655+397.259+19.027+412.147+18.7767+430.539C18.4014+430.539+17.901+430.414+17.5256+430.414C8.01717+430.414+0.260257+438.171+0.260257+447.679C0.260257+448.43+0.260257+449.306+0.385369+450.056L0.385369+450.056C0.635592+451.307+3.38804+458.314+35.6668+458.314L100.475+458.314C135.756+458.314+135.756+449.931+135.756+449.931L135.631+449.931L135.756+449.931C135.756+449.18+135.881+448.43+135.881+447.804Z" fill-rule="evenodd" fill="#ffffff" opacity="1"/>
<path d="M131.002+448.805C131.002+440.172+123.495+433.166+114.362+433.166C111.484+433.166+108.732+433.917+106.355+435.043C106.355+434.793+106.355+434.542+106.355+434.292C106.355+422.532+96.0956+412.898+83.4594+412.898C80.832+412.898+78.2047+413.273+75.8276+414.149C69.8222+407.393+60.8142+403.139+50.6802+403.139C32.7892+403.139+18.2763+416.526+18.0261+433.166C17.6508+433.166+17.1503+433.166+16.775+433.166C7.51673+433.166+0.135153+440.172+0.135153+448.805C0.135153+449.556+0.135153+450.181+0.260264+450.932L0.260264+450.932C0.510487+452.058+3.13783+458.314+34.2906+458.314L96.7212+458.314C130.751+458.314+130.751+450.682+130.751+450.682L130.626+450.682C130.626+450.682+130.626+450.682+130.751+450.682C130.877+450.056+131.002+449.431+131.002+448.805Z" fill-rule="evenodd" fill="#e2f3f3" opacity="1"/>
<path d="M1303.8+419.904C1303.8+408.019+1294.16+398.51+1282.28+398.51C1278.52+398.51+1275.02+399.511+1271.89+401.138C1271.89+400.762+1271.89+400.387+1271.89+400.012C1271.89+383.747+1258.76+370.61+1242.49+370.61C1239.11+370.61+1235.74+371.236+1232.73+372.237C1224.98+362.979+1213.34+357.098+1200.33+357.098C1177.31+357.098+1158.54+375.615+1158.17+398.51C1157.67+398.51+1157.04+398.385+1156.54+398.385C1144.65+398.385+1135.02+408.019+1135.02+419.779C1135.02+420.78+1135.15+421.781+1135.27+422.657L1135.27+422.657C1135.52+424.158+1139.02+432.916+1179.06+432.916L1259.51+432.916C1303.3+432.916+1303.3+422.407+1303.3+422.407L1303.17+422.407L1303.3+422.407C1303.8+421.656+1303.8+420.78+1303.8+419.904Z" fill-rule="evenodd" fill="#ffffff" opacity="1"/>
<path d="M1297.79+421.155C1297.79+410.521+1288.53+401.763+1277.15+401.763C1273.52+401.763+1270.14+402.639+1267.14+404.14C1267.14+403.765+1267.14+403.515+1267.14+403.139C1267.14+388.501+1254.5+376.616+1238.74+376.616C1235.49+376.616+1232.23+377.116+1229.35+378.117C1221.85+369.735+1210.71+364.48+1198.2+364.48C1176.06+364.48+1157.92+381.12+1157.67+401.763C1157.17+401.763+1156.67+401.638+1156.16+401.638C1144.78+401.638+1135.52+410.271+1135.52+421.03C1135.52+421.906+1135.65+422.782+1135.77+423.658L1135.77+423.658C1136.02+425.034+1139.4+432.916+1177.93+432.916L1255.5+432.916C1297.79+432.916+1297.79+423.533+1297.79+423.533L1297.67+423.533L1297.79+423.533C1297.67+422.782+1297.79+422.031+1297.79+421.155Z" fill-rule="evenodd" fill="#e2f3f3" opacity="1"/>
<path d="M395.112+267.894L543.995+649.859L362.083+649.859L213.2+267.894" fill-rule="evenodd" fill="#ffffff" opacity="0.2"/>
<path d="M312.789+210.218L461.671+592.058L229.59+622.084L68.0707+210.218" fill-rule="evenodd" fill="#ffffff" opacity="0.2"/>
<path d="M944.476+288.913L1069.21+601.316L941.223+626.964L810.357+300.173" fill-rule="evenodd" fill="#ffffff" opacity="0.2"/>
<path d="M597.542+589.681C561.635+558.152+534.236+545.391+503.709+545.391C473.181+545.391+445.782+558.152+409.875+589.681C374.218+620.958+343.816+631.468+323.548+634.47L683.994+634.47C663.726+631.343+633.324+620.958+597.542+589.681Z" opacity="1" fill="#8ca53f"/>
<path d="M501.832+545.391C472.181+545.892+445.156+558.778+410+589.555C374.343+620.833+343.941+631.343+323.673+634.345L501.957+634.345L501.957+545.391L501.832+545.391Z" opacity="1" fill="#94af42"/>
<path d="M961.491+589.681C925.459+558.152+897.935+545.391+867.408+545.391C836.88+545.391+809.356+558.152+773.324+589.681C737.542+620.958+707.015+631.468+686.747+634.47L1047.94+634.47C1027.68+631.343+997.273+620.958+961.491+589.681Z" opacity="1" fill="#8ca53f"/>
<path d="M865.406+545.516C835.629+546.017+808.605+558.903+773.324+589.681C737.542+620.958+707.015+631.468+686.747+634.47L865.406+634.47C865.406+634.47+865.406+545.516+865.406+545.516Z" opacity="1" fill="#94af42"/>
<path d="M417.257+589.681C381.099+558.152+353.45+545.391+322.672+545.391C291.895+545.391+264.371+558.152+228.088+589.681C192.181+620.958+161.529+631.468+141.011+634.47L504.209+634.47C483.816+631.343+453.164+620.958+417.257+589.681Z" opacity="1" fill="#9fbe47"/>
<path d="M320.671+545.391C290.769+545.892+263.495+558.778+228.088+589.555C192.181+620.833+161.529+631.343+141.011+634.345L320.671+634.345C320.671+634.345+320.671+545.391+320.671+545.391Z" opacity="1" fill="#acd14d"/>
<path d="M780.33+589.681C744.173+558.152+716.523+545.391+685.746+545.391C654.968+545.391+627.444+558.152+591.162+589.681C555.255+620.958+524.602+631.468+504.084+634.47L867.282+634.47C847.014+631.343+816.362+620.958+780.33+589.681Z" opacity="1" fill="#9fbe47"/>
<path d="M683.869+545.391C653.967+545.892+626.693+558.778+591.287+589.555C555.38+620.833+524.727+631.343+504.209+634.345L683.869+634.345C683.869+634.345+683.869+545.391+683.869+545.391Z" opacity="1" fill="#acd14d"/>
<path d="M1144.03+589.681C1107.87+558.152+1080.22+545.391+1049.44+545.391C1018.67+545.391+991.143+558.152+954.86+589.681C918.828+620.958+888.301+631.468+867.783+634.47L1230.98+634.47C1210.59+631.343+1180.06+620.958+1144.03+589.681Z" opacity="1" fill="#9fbe47"/>
<path d="M1046.94+545.391C1017.04+545.892+989.767+558.778+954.36+589.555C918.328+620.833+887.801+631.343+867.282+634.345L1046.94+634.345L1046.94+545.391Z" opacity="1" fill="#acd14d"/>
<path d="M1337.58+666.874C1337.58+685.641+1315.68+700.779+1288.78+700.779L115.488+700.779C88.5889+700.779+66.6944+685.641+66.6944+666.874L66.6944+661.87C66.6944+643.103+88.5889+627.965+115.488+627.965L1288.78+627.965C1315.68+627.965+1337.58+643.103+1337.58+661.87C1337.58+661.87+1337.58+666.874+1337.58+666.874Z" opacity="1" fill="#c9dc52"/>
<path d="M384.477+575.293L384.477+615.454" opacity="1" fill="#5e7878"/>
<path d="M384.477+618.581C382.851+618.581+381.475+617.205+381.475+615.454L381.475+575.168C381.475+573.416+382.851+572.04+384.477+572.04C386.104+572.04+387.48+573.416+387.48+575.168L387.48+615.454C387.48+617.205+386.104+618.581+384.477+618.581Z" opacity="1" fill="#5e7878"/>
<path d="M384.978+544.515L361.707+603.318L384.978+603.318" opacity="1" fill="#7f9539"/>
<path d="M384.477+544.515L407.748+603.318L384.477+603.318" opacity="1" fill="#6e8135"/>
<path d="M541.993+537.009L541.993+577.295" opacity="1" fill="#5e7878"/>
<path d="M541.993+580.297C540.366+580.297+538.99+578.921+538.99+577.169L538.99+537.009C538.99+535.257+540.366+533.881+541.993+533.881C543.619+533.881+544.995+535.257+544.995+537.009L544.995+577.295C544.995+578.921+543.619+580.297+541.993+580.297Z" opacity="1" fill="#5e7878"/>
<path d="M542.493+506.231L519.222+565.034L542.493+565.034" opacity="1" fill="#7f9539"/>
<path d="M541.993+506.231L565.263+565.034L541.993+565.034" opacity="1" fill="#6e8135"/>
<path d="M828.498+537.009L828.498+577.295" opacity="1" fill="#5e7878"/>
<path d="M828.498+580.297C826.871+580.297+825.495+578.921+825.495+577.169L825.495+537.009C825.495+535.257+826.871+533.881+828.498+533.881C830.124+533.881+831.501+535.257+831.501+537.009L831.501+577.295C831.501+578.921+830.124+580.297+828.498+580.297Z" opacity="1" fill="#5e7878"/>
<path d="M828.873+506.231L805.728+565.034L828.873+565.034" opacity="1" fill="#7f9539"/>
<path d="M828.498+506.231L851.644+565.034L828.498+565.034" opacity="1" fill="#6e8135"/>
<path d="M922.832+603.067L922.832+643.353" opacity="1" fill="#5e7878"/>
<path d="M922.832+646.481C921.205+646.481+919.829+645.105+919.829+643.353L919.829+603.067C919.829+601.316+921.205+599.94+922.832+599.94C924.458+599.94+925.835+601.316+925.835+603.067L925.835+643.353C925.835+645.105+924.458+646.481+922.832+646.481Z" opacity="1" fill="#5e7878"/>
<path d="M923.332+572.415L900.062+631.218L923.332+631.218" opacity="1" fill="#7f9539"/>
<path d="M922.832+572.415L946.103+631.218L922.832+631.218" opacity="1" fill="#6e8135"/>
<path d="M460.42+616.204L460.42+643.353" opacity="1" fill="#5e7878"/>
<path d="M460.42+646.481C458.794+646.481+457.417+645.105+457.417+643.353L457.417+616.204C457.417+614.453+458.794+613.076+460.42+613.076C462.047+613.076+463.423+614.453+463.423+616.204L463.423+643.353C463.548+645.105+462.172+646.481+460.42+646.481Z" opacity="1" fill="#5e7878"/>
<path d="M460.795+595.436L445.156+635.096L460.795+635.096" opacity="1" fill="#7f9539"/>
<path d="M460.42+595.436L476.184+635.096L460.42+635.096" opacity="1" fill="#6e8135"/>
<path d="M475.934+545.141L475.934+572.415" opacity="1" fill="#5e7878"/>
<path d="M475.934+575.418C474.307+575.418+472.931+574.042+472.931+572.29L472.931+545.141C472.931+543.389+474.307+542.013+475.934+542.013C477.56+542.013+478.937+543.389+478.937+545.141L478.937+572.29C479.062+574.042+477.685+575.418+475.934+575.418Z" opacity="1" fill="#5e7878"/>
<path d="M476.309+524.497L460.67+564.158L476.309+564.158" opacity="1" fill="#7f9539"/>
<path d="M475.934+524.497L491.698+564.158L475.934+564.158" opacity="1" fill="#6e8135"/>
<path d="M774.575+578.671L774.575+605.82" opacity="1" fill="#5e7878"/>
<path d="M774.575+608.948C772.948+608.948+771.572+607.571+771.572+605.82L771.572+578.671C771.572+576.919+772.948+575.543+774.575+575.543C776.201+575.543+777.578+576.919+777.578+578.671L777.578+605.82C777.703+607.571+776.326+608.948+774.575+608.948Z" opacity="1" fill="#5e7878"/>
<path d="M774.95+557.902L759.311+597.563L774.95+597.563" opacity="1" fill="#7f9539"/>
<path d="M774.575+557.902L790.339+597.563L774.575+597.563" opacity="1" fill="#6e8135"/>
<path d="M891.054+551.522L891.054+578.671" opacity="1" fill="#5e7878"/>
<path d="M891.054+581.799C889.427+581.799+888.051+580.422+888.051+578.671L888.051+551.522C888.051+549.77+889.427+548.394+891.054+548.394C892.68+548.394+894.056+549.77+894.056+551.522L894.056+578.671C894.181+580.422+892.805+581.799+891.054+581.799Z" opacity="1" fill="#5e7878"/>
<path d="M891.429+530.753L875.79+570.413L891.429+570.413" opacity="1" fill="#7f9539"/>
<path d="M891.054+530.753L906.818+570.413L891.054+570.413" opacity="1" fill="#6e8135"/>
<path d="M1078.85+585.552L1078.85+612.701" opacity="1" fill="#5e7878"/>
<path d="M1078.85+615.829C1077.22+615.829+1075.84+614.453+1075.84+612.701L1075.84+585.552C1075.84+583.8+1077.22+582.424+1078.85+582.424C1080.47+582.424+1081.85+583.8+1081.85+585.552L1081.85+612.701C1081.85+614.453+1080.47+615.829+1078.85+615.829Z" opacity="1" fill="#5e7878"/>
<path d="M1079.1+564.783L1063.46+604.444L1079.1+604.444" opacity="1" fill="#7f9539"/>
<path d="M1078.85+564.783L1094.48+604.444L1078.85+604.444" opacity="1" fill="#6e8135"/>
<path d="M225.586+588.054L225.586+640.1" opacity="1" fill="#5e7878"/>
<path d="M225.586+643.103C223.959+643.103+222.583+641.727+222.583+639.975L222.583+588.054C222.583+586.303+223.959+584.926+225.586+584.926C227.212+584.926+228.589+586.303+228.589+588.054L228.589+639.975C228.714+641.727+227.337+643.103+225.586+643.103Z" opacity="1" fill="#5e7878"/>
<path d="M226.211+548.394L196.31+624.336L226.211+624.336" opacity="1" fill="#94af42"/>
<path d="M225.586+548.394L255.613+624.336L225.586+624.336" opacity="1" fill="#8ca53f"/>
<path d="M631.823+607.947L631.823+659.868" opacity="1" fill="#5e7878"/>
<path d="M631.823+662.996C630.196+662.996+628.82+661.62+628.82+659.868L628.82+607.947C628.82+606.195+630.196+604.819+631.823+604.819C633.449+604.819+634.825+606.195+634.825+607.947L634.825+659.868C634.825+661.62+633.449+662.996+631.823+662.996Z" opacity="1" fill="#5e7878"/>
<path d="M632.448+568.286L602.422+644.104L632.448+644.104" opacity="1" fill="#94af42"/>
<path d="M631.823+568.286L661.849+644.104L631.823+644.104" opacity="1" fill="#8ca53f"/>
<path d="M991.893+562.031L991.893+614.077" opacity="1" fill="#5e7878"/>
<path d="M991.893+617.205C990.267+617.205+988.891+615.829+988.891+614.077L988.891+562.031C988.891+560.279+990.267+558.903+991.893+558.903C993.52+558.903+994.896+560.279+994.896+562.031L994.896+613.952C994.896+615.704+993.52+617.205+991.893+617.205Z" opacity="1" fill="#5e7878"/>
<path d="M992.519+522.496L962.492+598.313L992.519+598.313" opacity="1" fill="#94af42"/>
<path d="M991.893+522.496L1021.92+598.313L991.893+598.313" opacity="1" fill="#8ca53f"/>
<path d="M1193.32+600.065L1193.32+651.986" opacity="1" fill="#5e7878"/>
<path d="M1193.32+655.114C1191.7+655.114+1190.32+653.738+1190.32+651.986L1190.32+600.065C1190.32+598.313+1191.7+596.937+1193.32+596.937C1194.95+596.937+1196.33+598.313+1196.33+600.065L1196.33+651.986C1196.45+653.738+1195.07+655.114+1193.32+655.114Z" opacity="1" fill="#5e7878"/>
<path d="M1193.95+560.404L1164.05+636.222L1193.95+636.222" opacity="1" fill="#94af42"/>
<path d="M1193.32+560.404L1223.35+636.222L1193.32+636.222" opacity="1" fill="#8ca53f"/>
<path d="M294.898+555.9L294.898+593.184" opacity="1" fill="#5e7878"/>
<path d="M294.898+596.311C293.271+596.311+291.895+594.935+291.895+593.184L291.895+555.9C291.895+554.149+293.271+552.773+294.898+552.773C296.524+552.773+297.9+554.149+297.9+555.9L297.9+593.184C298.025+594.935+296.649+596.311+294.898+596.311Z" opacity="1" fill="#5e7878"/>
<path d="M295.398+527.5L273.879+581.924L295.398+581.924" opacity="1" fill="#94af42"/>
<path d="M294.898+527.5L316.417+581.924L294.898+581.924" opacity="1" fill="#8ca53f"/>
<path d="M719.776+563.782L719.776+601.066" opacity="1" fill="#5e7878"/>
<path d="M719.776+604.193C718.15+604.193+716.773+602.817+716.773+601.066L716.773+563.783C716.773+562.031+718.15+560.655+719.776+560.655C721.403+560.655+722.779+562.031+722.779+563.783L722.779+601.066C722.779+602.817+721.528+604.193+719.776+604.193Z" opacity="1" fill="#5e7878"/>
<path d="M720.277+535.382L698.757+589.806L720.277+589.806" opacity="1" fill="#94af42"/>
<path d="M719.776+535.382L741.295+589.806L719.776+589.806" opacity="1" fill="#8ca53f"/>
<path d="M1128.01+570.163L1128.01+607.446" opacity="1" fill="#5e7878"/>
<path d="M1128.01+610.449C1126.39+610.449+1125.01+609.073+1125.01+607.321L1125.01+570.038C1125.01+568.287+1126.39+566.91+1128.01+566.91C1129.64+566.91+1131.02+568.287+1131.02+570.038L1131.02+607.321C1131.02+609.073+1129.64+610.449+1128.01+610.449Z" opacity="1" fill="#5e7878"/>
<path d="M1128.39+541.763L1106.87+596.061L1128.39+596.061" opacity="1" fill="#94af42"/>
<path d="M1128.01+541.763L1149.41+596.061L1128.01+596.061" opacity="1" fill="#8ca53f"/>
<path d="M795.844+619.707L795.844+656.865" opacity="1" fill="#5e7878"/>
<path d="M795.844+659.993C794.217+659.993+792.841+658.617+792.841+656.865L792.841+619.582C792.841+617.831+794.217+616.454+795.844+616.454C797.47+616.454+798.846+617.831+798.846+619.582L798.846+656.865C798.847+658.617+797.47+659.993+795.844+659.993Z" opacity="1" fill="#5e7878"/>
<path d="M796.344+591.307L774.825+645.605L796.344+645.605" opacity="1" fill="#94af42"/>
<path d="M795.844+591.307L817.363+645.605L795.844+645.605" opacity="1" fill="#8ca53f"/>
<path d="M727.658+648.983L727.658+799.117" opacity="1" fill="#5e7878"/>
<path d="M675.487+459.94C680.366+458.063+685.12+456.437+690+455.311C694.754+454.06+699.633+453.434+704.262+453.559C706.514+453.684+708.766+454.06+710.768+454.685C711.769+455.061+712.77+455.436+713.646+455.936C714.521+456.437+715.397+457.062+716.148+457.688C716.898+458.314+717.649+459.064+718.275+459.94C718.9+460.816+719.526+461.566+720.026+462.567C720.527+463.443+721.027+464.569+721.402+465.57C721.778+466.571+722.028+467.697+722.403+468.823L722.403+468.948C723.154+471.075+725.406+472.326+727.533+471.575C728.784+471.2+729.785+470.199+730.16+468.948C730.911+466.821+731.662+464.569+732.663+462.692C733.663+460.816+735.04+459.064+736.541+457.688C739.544+454.81+743.672+453.434+748.176+453.184C750.428+453.059+752.805+453.184+755.183+453.434C757.56+453.684+759.937+454.185+762.314+454.81C764.691+455.436+767.068+456.187+769.57+456.937C771.948+457.813+774.325+458.689+776.702+459.69C772.823+456.187+768.444+453.434+763.69+451.057C758.936+448.805+753.806+447.054+748.176+446.803C746.8+446.678+745.299+446.678+743.923+446.803C742.421+446.928+741.045+447.179+739.544+447.554C738.167+447.929+736.666+448.555+735.29+449.18C733.914+449.806+732.663+450.682+731.411+451.683C730.16+452.558+729.159+453.81+728.159+454.81C727.283+456.062+726.282+457.188+725.656+458.439C724.155+460.941+723.029+463.693+722.153+466.321L729.91+466.446C729.41+465.07+729.159+463.693+728.534+462.317C728.033+460.941+727.408+459.565+726.657+458.314C726.032+456.937+725.031+455.811+724.155+454.56C723.154+453.434+722.028+452.308+720.902+451.307C719.651+450.432+718.4+449.556+717.024+448.93C715.647+448.18+714.271+447.804+712.77+447.429C709.892+446.678+707.015+446.553+704.262+446.803C698.632+447.179+693.503+448.93+688.748+451.182C683.869+453.81+679.49+456.437+675.487+459.94Z" opacity="1" fill="#ffffff"/>
<path d="M844.012+426.535C840.509+425.284+837.131+424.033+833.627+423.282C830.249+422.407+826.746+421.906+823.368+422.031C821.742+422.156+820.115+422.407+818.739+422.907C817.989+423.157+817.363+423.407+816.737+423.783C816.112+424.158+815.486+424.533+814.986+425.034C814.485+425.534+813.985+426.035+813.485+426.66C813.109+427.286+812.609+427.786+812.233+428.537C811.858+429.163+811.608+429.913+811.233+430.664C810.982+431.415+810.732+432.165+810.482+433.041L810.482+433.166C809.981+434.667+808.355+435.543+806.729+435.043C805.853+434.793+805.102+434.042+804.852+433.166C804.351+431.665+803.851+430.038+802.975+428.662C802.225+427.286+801.349+426.16+800.223+425.159C798.096+423.157+795.093+422.156+791.84+421.906C790.214+421.781+788.587+421.906+786.836+422.156C785.084+422.407+783.458+422.657+781.706+423.157C779.955+423.533+778.328+424.158+776.577+424.659C774.825+425.284+773.199+425.91+771.447+426.535C774.2+424.033+777.327+422.031+780.705+420.405C784.083+418.778+787.837+417.527+791.84+417.277C792.841+417.152+793.842+417.277+794.843+417.277C795.844+417.402+796.845+417.527+797.971+417.903C798.972+418.153+799.973+418.528+800.973+419.029C801.974+419.529+802.85+420.155+803.726+420.78C804.602+421.406+805.352+422.281+806.103+423.032C806.729+423.908+807.479+424.784+807.98+425.659C809.106+427.411+809.856+429.413+810.482+431.289L804.852+431.415C805.227+430.414+805.477+429.413+805.853+428.537C806.228+427.536+806.603+426.66+807.229+425.659C807.729+424.659+808.355+423.783+809.106+423.032C809.856+422.156+810.607+421.406+811.483+420.78C812.359+420.155+813.359+419.529+814.235+419.029C815.236+418.528+816.237+418.153+817.238+417.903C819.24+417.402+821.367+417.277+823.368+417.402C827.372+417.652+831+418.903+834.378+420.53C838.006+422.156+841.259+424.033+844.012+426.535Z" opacity="1" fill="#ffffff"/>
<path d="M40.0457+553.523C44.925+551.647+49.6793+550.02+54.5586+548.894C59.3129+547.643+64.1922+547.018+68.8213+547.143C71.0733+547.268+73.3253+547.643+75.3271+548.269C76.328+548.644+77.3289+549.019+78.2047+549.52C79.0805+550.02+79.9562+550.646+80.7069+551.271C81.4576+551.897+82.2083+552.648+82.8338+553.523C83.4594+554.399+84.0849+555.15+84.5854+556.151C85.0858+557.026+85.5863+558.152+85.9616+559.153C86.3369+560.154+86.5872+561.28+86.9625+562.406L86.9625+562.531C87.7132+564.658+89.9652+565.909+92.0921+565.159C93.3432+564.783+94.3441+563.782+94.7194+562.531C95.4701+560.404+96.2207+558.152+97.2216+556.276C98.2225+554.399+99.5987+552.648+101.1+551.271C104.103+548.394+108.231+547.018+112.735+546.767C114.987+546.642+117.365+546.767+119.742+547.018C122.119+547.268+124.496+547.768+126.873+548.394C129.25+549.019+131.627+549.77+134.129+550.521C136.507+551.396+138.884+552.272+141.261+553.273C137.382+549.77+133.003+547.018+128.249+544.64C123.495+542.388+118.365+540.637+112.735+540.387C111.359+540.262+109.858+540.262+108.482+540.387C106.98+540.512+105.604+540.762+104.103+541.137C102.727+541.513+101.225+542.138+99.849+542.764C98.4727+543.389+97.2216+544.265+95.9705+545.266C94.7194+546.142+93.7185+547.393+92.7176+548.394C91.8418+549.645+90.8409+550.771+90.2154+552.022C88.714+554.524+87.588+557.277+86.7123+559.904L94.4692+560.029C93.9687+558.653+93.7185+557.277+93.0929+555.9C92.5925+554.524+91.9669+553.148+91.2163+551.897C90.5907+550.521+89.5898+549.395+88.714+548.144C87.7132+547.018+86.7123+545.892+85.4611+544.891C84.21+544.015+82.9589+543.139+81.5827+542.514C80.2065+541.763+78.8302+541.388+77.3289+541.012C74.4513+540.262+71.5738+540.136+68.8213+540.387C63.1913+540.762+58.0617+542.514+53.3075+544.766C48.4282+547.393+44.0493+550.02+40.0457+553.523Z" opacity="1" fill="#ffffff"/>
<path d="M365.21+153.417C370.09+151.54+374.844+149.914+379.723+148.788C384.477+147.537+389.357+146.911+393.986+147.036C396.238+147.161+398.49+147.537+400.492+148.162C401.493+148.538+402.493+148.913+403.369+149.413C404.245+149.914+405.121+150.539+405.871+151.165C406.622+151.791+407.373+152.541+407.998+153.417C408.624+154.293+409.25+155.043+409.75+156.044C410.25+156.92+410.751+158.046+411.126+159.047C411.502+160.048+411.752+161.174+412.127+162.3L412.127+162.425C412.878+164.552+415.13+165.803+417.257+165.052C418.508+164.677+419.509+163.676+419.884+162.425C420.635+160.298+421.385+158.046+422.386+156.169C423.387+154.293+424.763+152.541+426.265+151.165C429.267+148.287+433.396+146.911+437.9+146.661C440.152+146.536+442.529+146.661+444.906+146.911C447.283+147.161+449.66+147.662+452.038+148.287C454.415+148.913+456.792+149.664+459.294+150.414C461.671+151.29+464.048+152.166+466.425+153.167C462.547+149.664+458.168+146.911+453.414+144.534C448.66+142.282+443.53+140.531+437.9+140.28C436.524+140.155+435.022+140.155+433.646+140.28C432.145+140.405+430.769+140.656+429.267+141.031C427.891+141.406+426.39+142.032+425.014+142.657C423.637+143.283+422.386+144.159+421.135+145.16C419.884+146.035+418.883+147.287+417.882+148.287C417.006+149.539+416.006+150.665+415.38+151.916C413.879+154.418+412.753+157.17+411.877+159.798L419.634+159.923C419.133+158.547+418.883+157.17+418.258+155.794C417.757+154.418+417.132+153.042+416.381+151.791C415.755+150.414+414.754+149.288+413.879+148.037C412.878+146.911+411.877+145.785+410.626+144.784C409.375+143.909+408.124+143.033+406.747+142.407C405.371+141.657+403.995+141.281+402.493+140.906C399.616+140.155+396.738+140.03+393.986+140.28C388.356+140.656+383.226+142.407+378.472+144.659C373.593+147.287+369.214+150.039+365.21+153.417Z" opacity="1" fill="#ffffff"/>
<path d="M1299.54+524.998C1304.42+523.121+1309.18+521.495+1314.06+520.369C1318.81+519.118+1323.69+518.492+1328.32+518.617C1330.57+518.742+1332.82+519.118+1334.82+519.743C1335.82+520.119+1336.83+520.494+1337.7+520.994C1338.58+521.495+1339.45+522.12+1340.2+522.746C1340.95+523.372+1341.71+524.122+1342.33+524.998C1342.96+525.874+1343.58+526.624+1344.08+527.625C1344.58+528.501+1345.08+529.627+1345.46+530.628C1345.83+531.629+1346.08+532.755+1346.46+533.881L1346.46+534.006C1347.21+536.133+1349.46+537.384+1351.59+536.633C1352.84+536.258+1353.84+535.257+1354.22+534.006C1354.97+531.879+1355.72+529.627+1356.72+527.75C1357.72+525.874+1359.1+524.122+1360.6+522.746C1363.6+519.868+1367.73+518.492+1372.23+518.242C1374.48+518.117+1376.86+518.242+1379.24+518.492C1381.62+518.742+1383.99+519.243+1386.37+519.868C1388.75+520.494+1391.12+521.245+1393.63+521.995C1396+522.871+1398.38+523.747+1400.76+524.748C1396.88+521.245+1392.5+518.492+1387.75+516.115C1382.99+513.863+1377.86+512.111+1372.23+511.861C1370.86+511.736+1369.35+511.736+1367.98+511.861C1366.48+511.986+1365.1+512.237+1363.6+512.612C1362.22+512.987+1360.72+513.613+1359.35+514.238C1357.97+514.864+1356.72+515.74+1355.47+516.741C1354.22+517.616+1353.22+518.868+1352.21+519.868C1351.34+521.12+1350.34+522.246+1349.71+523.497C1348.21+525.999+1347.08+528.751+1346.21+531.379L1353.97+531.504C1353.47+530.128+1353.22+528.751+1352.59+527.375C1352.09+525.999+1351.46+524.623+1350.71+523.372C1350.09+521.995+1349.09+520.869+1348.21+519.618C1347.21+518.492+1346.08+517.366+1344.96+516.365C1343.71+515.489+1342.46+514.614+1341.08+513.988C1339.7+513.237+1338.33+512.862+1336.83+512.487C1333.95+511.736+1331.07+511.611+1328.32+511.861C1322.69+512.237+1317.56+513.988+1312.8+516.24C1307.92+518.993+1303.55+521.62+1299.54+524.998Z" opacity="1" fill="#ffffff"/>
<path d="M169.661+517.992C166.158+516.741+162.78+515.489+159.277+514.739C155.899+513.863+152.396+513.363+149.018+513.488C147.391+513.613+145.765+513.863+144.389+514.363C143.638+514.614+143.012+514.864+142.387+515.239C141.761+515.615+141.136+515.99+140.635+516.49C140.135+516.991+139.634+517.491+139.134+518.117C138.759+518.742+138.258+519.243+137.883+519.993C137.507+520.619+137.257+521.37+136.882+522.12C136.632+522.871+136.381+523.622+136.131+524.498L136.131+524.623C135.631+526.124+134.004+527+132.378+526.499C131.502+526.249+130.751+525.498+130.501+524.623C130.001+523.121+129.5+521.495+128.625+520.119C127.874+518.742+126.998+517.616+125.872+516.615C123.745+514.614+120.743+513.613+117.49+513.363C115.863+513.237+114.237+513.363+112.485+513.613C110.734+513.863+109.107+514.113+107.356+514.614C105.604+514.989+103.978+515.615+102.226+516.115C100.475+516.741+98.8481+517.366+97.0965+517.992C99.849+515.489+102.977+513.488+106.355+511.861C109.733+510.235+113.486+508.984+117.49+508.733C118.491+508.608+119.491+508.733+120.492+508.733C121.493+508.859+122.494+508.984+123.62+509.359C124.621+509.609+125.622+509.985+126.623+510.485C127.624+510.985+128.499+511.611+129.375+512.237C130.251+512.862+131.002+513.738+131.752+514.489C132.378+515.364+133.129+516.24+133.629+517.116C134.755+518.867+135.506+520.869+136.131+522.746L130.501+522.871C130.877+521.87+131.127+520.869+131.502+519.993C131.877+518.993+132.253+518.117+132.878+517.116C133.379+516.115+134.004+515.239+134.755+514.489C135.506+513.613+136.256+512.862+137.132+512.237C138.008+511.611+139.009+510.985+139.885+510.485C140.885+509.985+141.886+509.609+142.887+509.359C144.889+508.859+147.016+508.733+149.018+508.859C153.021+509.109+156.65+510.36+160.028+511.986C163.656+513.613+166.909+515.489+169.661+517.992Z" opacity="1" fill="#ffffff"/>
<path d="M1114.75+309.181C1111.25+307.93+1107.87+306.679+1104.37+305.928C1100.99+305.052+1097.49+304.552+1094.11+304.677C1092.48+304.802+1090.86+305.052+1089.48+305.553C1088.73+305.803+1088.1+306.053+1087.48+306.428C1086.85+306.804+1086.23+307.179+1085.73+307.679C1085.23+308.18+1084.73+308.68+1084.23+309.306C1083.85+309.931+1083.35+310.432+1082.97+311.183C1082.6+311.808+1082.35+312.559+1081.97+313.309C1081.72+314.06+1081.47+314.811+1081.22+315.687L1081.22+315.812C1080.72+317.313+1079.1+318.189+1077.47+317.688C1076.59+317.438+1075.84+316.687+1075.59+315.812C1075.09+314.31+1074.59+312.684+1073.72+311.308C1072.97+309.931+1072.09+308.805+1070.96+307.805C1068.84+305.803+1065.83+304.802+1062.58+304.552C1060.95+304.427+1059.33+304.552+1057.58+304.802C1055.83+305.052+1054.2+305.302+1052.45+305.803C1050.7+306.178+1049.07+306.804+1047.32+307.304C1045.57+307.93+1043.94+308.555+1042.19+309.181C1044.94+306.679+1048.07+304.677+1051.45+303.05C1054.82+301.424+1058.58+300.173+1062.58+299.923C1063.58+299.797+1064.58+299.923+1065.58+299.923C1066.58+300.048+1067.59+300.173+1068.71+300.548C1069.71+300.798+1070.71+301.174+1071.71+301.674C1072.72+302.175+1073.59+302.8+1074.47+303.426C1075.34+304.051+1076.09+304.927+1076.84+305.678C1077.47+306.553+1078.22+307.429+1078.6+308.305C1079.72+310.057+1080.47+312.058+1081.1+313.935L1075.47+314.06C1075.84+313.059+1076.09+312.058+1076.47+311.183C1076.84+310.182+1077.34+309.306+1077.84+308.305C1078.35+307.304+1078.97+306.428+1079.72+305.678C1080.47+304.802+1081.22+304.051+1082.1+303.426C1082.97+302.8+1083.85+302.175+1084.85+301.674C1085.85+301.174+1086.85+300.798+1087.85+300.548C1089.86+300.048+1091.98+299.923+1093.98+300.048C1097.99+300.298+1101.62+301.549+1104.99+303.175C1108.75+304.802+1111.88+306.679+1114.75+309.181Z" opacity="1" fill="#ffffff"/>
<path d="M1293.16+93.2802L1300.04+81.0193L1307.05+68.8835L1293.16+68.8835L1279.27+68.8835L1286.16+81.0193L1293.16+93.2802Z" opacity="1" fill="#6db9b5"/>
<path d="M1273.52+63.0032L1273.52+48.8656L1273.52+34.8532L1261.51+41.8594L1249.37+48.8656L1261.51+55.997L1273.52+63.0032Z" opacity="1" fill="#6db9b5"/>
<path d="M1265.89+26.5958L1265.89+40.6083L1265.89+54.7459L1253.88+47.7396L1241.74+40.7334L1253.88+33.602L1265.89+26.5958Z" fill-rule="evenodd" fill="#f2d583" opacity="1"/>
<path d="M1227.98+46.7387L1241.49+46.7387L1234.61+34.6029L1227.6+22.342L1220.72+34.6029L1213.72+46.7387L1227.6+46.7387L1227.98+46.7387Z" opacity="1" fill="#6db9b5"/>
<path d="M1299.42+60.6261L1292.41+72.7619L1285.53+85.0228L1278.52+72.7619L1271.64+60.6261L1285.53+60.6261L1299.42+60.6261Z" fill-rule="evenodd" fill="#f2d583" opacity="1"/>
<path d="M1307.05+161.841L1300.04+149.58L1293.16+137.445L1286.16+149.58L1279.27+161.841L1293.16+161.841L1307.05+161.841Z" opacity="1" fill="#6db9b5"/>
<path d="M1295.29+115.3L1295.29+129.437L1307.3+122.306L1319.31+115.3L1307.3+108.294L1295.29+101.287L1295.29+115.3Z" opacity="1" fill="#6db9b5"/>
<path d="M1311.68+107.042L1299.67+114.174L1287.66+121.18L1287.66+107.042L1287.66+93.03L1299.67+100.036L1311.68+107.042Z" fill-rule="evenodd" fill="#f2d583" opacity="1"/>
<path d="M1299.42+153.584L1285.53+153.584L1271.64+153.584L1278.52+141.448L1285.53+129.187L1292.41+141.448L1299.42+153.584Z" fill-rule="evenodd" fill="#f2d583" opacity="1"/>
<path d="M1249.37+181.734L1261.51+188.865L1273.52+195.872L1273.52+181.734L1273.52+167.721L1261.51+174.728L1249.37+181.734Z" opacity="1" fill="#6db9b5"/>
<path d="M1265.89+187.614L1253.88+180.608L1241.74+173.477L1253.88+166.47L1265.89+159.464L1265.89+173.602L1265.89+187.614Z" fill-rule="evenodd" fill="#f2d583" opacity="1"/>
<path d="M1213.72+183.861L1220.72+196.122L1227.6+208.258L1227.98+207.757L1227.98+207.757L1234.61+196.122L1241.49+183.861L1227.6+183.861L1213.72+183.861Z" opacity="1" fill="#6db9b5"/>
<path d="M1220.35+175.729L1206.08+175.729L1213.09+187.864L1219.97+200.125L1220.35+199.5L1220.35+175.729Z" fill-rule="evenodd" fill="#fbe9a6" opacity="1"/>
<path d="M1219.97+200.125L1213.09+187.864L1206.08+175.729L1219.97+175.729L1233.86+175.729L1226.98+187.864L1219.97+200.125Z" fill-rule="evenodd" fill="#f2d583" opacity="1"/>
<path d="M1181.81+181.734L1181.81+195.872L1193.82+188.865L1205.83+181.734L1193.82+174.728L1181.81+167.721L1181.81+181.734Z" opacity="1" fill="#6db9b5"/>
<path d="M1174.18+187.614L1174.18+173.602L1174.18+159.464L1186.19+166.47L1198.2+173.477L1186.19+180.608L1174.18+187.614Z" fill-rule="evenodd" fill="#f2d583" opacity="1"/>
<path d="M1174.18+187.614L1174.18+173.602L1174.18+159.464L1186.19+166.47L1198.2+173.477L1186.19+180.608L1174.18+187.614Z" fill-rule="evenodd" fill="#fbe9a6" opacity="1"/>
<path d="M1155.16+149.58L1148.28+161.841L1162.17+161.841L1176.06+161.841L1169.05+149.58L1162.17+137.445L1155.16+149.58Z" opacity="1" fill="#6db9b5"/>
<path d="M1140.65+153.584L1147.53+141.448L1154.54+129.187L1161.42+141.448L1168.43+153.584L1154.54+153.584L1140.65+153.584Z" fill-rule="evenodd" fill="#f2d583" opacity="1"/>
<path d="M1140.65+153.584L1147.53+141.448L1154.54+129.187L1161.42+141.448L1168.43+153.584L1154.54+153.584L1140.65+153.584Z" fill-rule="evenodd" fill="#fbe9a6" opacity="1"/>
<path d="M1160.04+129.437L1160.04+115.3L1160.04+101.287L1148.03+108.294L1136.02+115.3L1148.03+122.306L1160.04+129.437Z" opacity="1" fill="#6db9b5"/>
<path d="M1128.39+107.042L1140.4+100.036L1152.41+93.03L1152.41+107.042L1152.41+121.18L1140.4+114.174L1128.39+107.042Z" fill-rule="evenodd" fill="#f2d583" opacity="1"/>
<path d="M1128.39+107.042L1140.4+100.036L1152.41+93.03L1152.41+107.042L1152.41+121.18L1140.4+114.174L1128.39+107.042Z" fill-rule="evenodd" fill="#fbe9a6" opacity="1"/>
<path d="M1162.17+93.2802L1169.05+81.0193L1176.06+68.8835L1162.17+68.8835L1148.28+68.8835L1155.16+81.0193L1162.17+93.2802Z" opacity="1" fill="#6db9b5"/>
<path d="M1140.65+60.6261L1154.54+60.6261L1168.43+60.6261L1161.42+72.7619L1154.54+85.0228L1147.53+72.7619L1140.65+60.6261Z" fill-rule="evenodd" fill="#f2d583" opacity="1"/>
<path d="M1140.65+60.6261L1154.54+60.6261L1168.43+60.6261L1161.42+72.7619L1154.54+85.0228L1147.53+72.7619L1140.65+60.6261Z" fill-rule="evenodd" fill="#fbe9a6" opacity="1"/>
<path d="M1193.82+55.997L1205.83+48.8656L1193.82+41.8594L1181.81+34.8532L1181.81+48.8656L1181.81+63.0032L1193.82+55.997Z" opacity="1" fill="#6db9b5"/>
<path d="M1174.18+26.5958L1186.19+33.602L1198.2+40.7334L1186.19+47.7396L1174.18+54.7459L1174.18+40.6083L1174.18+26.5958Z" fill-rule="evenodd" fill="#f2d583" opacity="1"/>
<path d="M1174.18+26.5958L1186.19+33.602L1198.2+40.7334L1186.19+47.7396L1174.18+54.7459L1174.18+40.6083L1174.18+26.5958Z" fill-rule="evenodd" fill="#fbe9a6" opacity="1"/>
<path d="M1219.97+14.0847L1226.98+26.3456L1233.86+38.4814L1219.97+38.4814L1206.08+38.4814L1213.09+26.3456L1219.97+14.0847Z" fill-rule="evenodd" fill="#f2d583" opacity="1"/>
<path d="M1220.35+14.7102L1219.97+14.0847L1213.09+26.3456L1206.08+38.4814L1220.35+38.4814L1220.35+14.7102Z" fill-rule="evenodd" fill="#fbe9a6" opacity="1"/>
</g>
</svg>
